<mxfile host="app.diagrams.net" modified="2024-02-28T21:38:03.302Z" agent="Mozilla/5.0 (Windows NT 10.0; Win64; x64) AppleWebKit/537.36 (KHTML, like Gecko) Chrome/122.0.0.0 Safari/537.36 Edg/122.0.0.0" etag="okjffUpRrp2opPmk6uYB" version="23.1.8" type="device">
  <diagram id="moagQERUu0DLplE0PJLT" name="Page-1">
    <mxGraphModel dx="1042" dy="569" grid="1" gridSize="10" guides="1" tooltips="1" connect="1" arrows="1" fold="1" page="0" pageScale="1" pageWidth="827" pageHeight="1169" math="1" shadow="0">
      <root>
        <mxCell id="0" />
        <mxCell id="1" parent="0" />
        <mxCell id="Ia3Usn_LcrKeNn7vQDtO-1" value="" style="endArrow=classic;html=1;endSize=7;startSize=7;sketch=0;shadow=0;strokeWidth=2;curved=1;strokeColor=#FF0000;" parent="1" edge="1">
          <mxGeometry width="50" height="50" relative="1" as="geometry">
            <mxPoint x="50" y="410" as="sourcePoint" />
            <mxPoint x="660" y="400" as="targetPoint" />
            <Array as="points">
              <mxPoint x="250" y="450" />
              <mxPoint x="330" y="360" />
            </Array>
          </mxGeometry>
        </mxCell>
        <mxCell id="Ia3Usn_LcrKeNn7vQDtO-2" value="" style="endArrow=classic;html=1;endSize=7;startSize=7;sketch=0;shadow=0;strokeWidth=2;curved=1;strokeColor=#0000FF;" parent="1" edge="1">
          <mxGeometry width="50" height="50" relative="1" as="geometry">
            <mxPoint x="50" y="400" as="sourcePoint" />
            <mxPoint x="240" y="360" as="targetPoint" />
            <Array as="points">
              <mxPoint x="130" y="410" />
              <mxPoint x="200" y="400" />
            </Array>
          </mxGeometry>
        </mxCell>
        <mxCell id="Ia3Usn_LcrKeNn7vQDtO-3" value="" style="endArrow=classic;html=1;endSize=7;startSize=7;sketch=0;shadow=0;strokeWidth=2;curved=1;strokeColor=#0000FF;" parent="1" edge="1">
          <mxGeometry width="50" height="50" relative="1" as="geometry">
            <mxPoint x="250" y="400" as="sourcePoint" />
            <mxPoint x="434" y="350" as="targetPoint" />
            <Array as="points">
              <mxPoint x="300" y="340" />
              <mxPoint x="370" y="330" />
            </Array>
          </mxGeometry>
        </mxCell>
        <mxCell id="Ia3Usn_LcrKeNn7vQDtO-4" value="" style="endArrow=classic;html=1;endSize=7;startSize=7;sketch=0;shadow=0;strokeWidth=2;curved=1;strokeColor=#0000FF;" parent="1" edge="1">
          <mxGeometry width="50" height="50" relative="1" as="geometry">
            <mxPoint x="440" y="360" as="sourcePoint" />
            <mxPoint x="660" y="350" as="targetPoint" />
            <Array as="points">
              <mxPoint x="510" y="360" />
              <mxPoint x="570" y="340" />
            </Array>
          </mxGeometry>
        </mxCell>
        <mxCell id="Ia3Usn_LcrKeNn7vQDtO-6" value="" style="endArrow=none;dashed=1;html=1;dashPattern=1 3;strokeWidth=2;shadow=0;sketch=0;startSize=7;endSize=7;curved=1;" parent="1" edge="1">
          <mxGeometry width="50" height="50" relative="1" as="geometry">
            <mxPoint x="240" y="440" as="sourcePoint" />
            <mxPoint x="240" y="430" as="targetPoint" />
          </mxGeometry>
        </mxCell>
        <mxCell id="Ia3Usn_LcrKeNn7vQDtO-7" value="" style="endArrow=none;dashed=1;html=1;dashPattern=1 3;strokeWidth=2;shadow=0;sketch=0;startSize=7;endSize=7;curved=1;" parent="1" edge="1">
          <mxGeometry width="50" height="50" relative="1" as="geometry">
            <mxPoint x="430" y="440" as="sourcePoint" />
            <mxPoint x="430" y="380" as="targetPoint" />
          </mxGeometry>
        </mxCell>
        <mxCell id="Ia3Usn_LcrKeNn7vQDtO-8" value="" style="endArrow=none;dashed=1;html=1;dashPattern=1 3;strokeWidth=2;shadow=0;sketch=0;startSize=7;endSize=7;curved=1;exitX=0.086;exitY=-0.039;exitDx=0;exitDy=0;exitPerimeter=0;" parent="1" source="Ia3Usn_LcrKeNn7vQDtO-11" edge="1">
          <mxGeometry width="50" height="50" relative="1" as="geometry">
            <mxPoint x="660" y="400" as="sourcePoint" />
            <mxPoint x="660" y="400" as="targetPoint" />
            <Array as="points" />
          </mxGeometry>
        </mxCell>
        <mxCell id="Ia3Usn_LcrKeNn7vQDtO-9" value="$$\mbox{Fiducial Trajectory}$$" style="text;html=1;strokeColor=none;fillColor=none;align=center;verticalAlign=middle;whiteSpace=wrap;rounded=0;" parent="1" vertex="1">
          <mxGeometry x="480" y="390" width="130" height="30" as="geometry" />
        </mxCell>
        <mxCell id="Ia3Usn_LcrKeNn7vQDtO-10" value="" style="endArrow=classic;html=1;shadow=0;sketch=0;strokeWidth=2;startSize=7;endSize=7;curved=1;" parent="1" edge="1">
          <mxGeometry width="50" height="50" relative="1" as="geometry">
            <mxPoint x="20" y="440" as="sourcePoint" />
            <mxPoint x="730" y="440" as="targetPoint" />
          </mxGeometry>
        </mxCell>
        <mxCell id="Ia3Usn_LcrKeNn7vQDtO-11" value="$$\mbox{Time (s)}$$" style="text;html=1;strokeColor=none;fillColor=none;align=center;verticalAlign=middle;whiteSpace=wrap;rounded=0;" parent="1" vertex="1">
          <mxGeometry x="650" y="440" width="130" height="30" as="geometry" />
        </mxCell>
        <mxCell id="Ia3Usn_LcrKeNn7vQDtO-12" value="" style="endArrow=none;dashed=1;html=1;dashPattern=1 3;strokeWidth=2;shadow=0;sketch=0;startSize=7;endSize=7;curved=1;" parent="1" edge="1">
          <mxGeometry width="50" height="50" relative="1" as="geometry">
            <mxPoint x="50" y="439.9999999999999" as="sourcePoint" />
            <mxPoint x="50" y="400" as="targetPoint" />
          </mxGeometry>
        </mxCell>
        <mxCell id="Ia3Usn_LcrKeNn7vQDtO-13" value="$$L(t_0)$$" style="text;html=1;strokeColor=none;fillColor=none;align=center;verticalAlign=middle;whiteSpace=wrap;rounded=0;" parent="1" vertex="1">
          <mxGeometry x="10" y="395" width="40" height="20" as="geometry" />
        </mxCell>
        <mxCell id="Ia3Usn_LcrKeNn7vQDtO-14" value="" style="endArrow=none;dashed=1;html=1;shadow=0;sketch=0;strokeColor=#666666;strokeWidth=2;startSize=7;endSize=7;curved=1;" parent="1" edge="1">
          <mxGeometry width="50" height="50" relative="1" as="geometry">
            <mxPoint x="50" y="410" as="sourcePoint" />
            <mxPoint x="50" y="400" as="targetPoint" />
          </mxGeometry>
        </mxCell>
        <mxCell id="Ia3Usn_LcrKeNn7vQDtO-15" value="$$t_0$$" style="text;html=1;strokeColor=none;fillColor=none;align=center;verticalAlign=middle;whiteSpace=wrap;rounded=0;" parent="1" vertex="1">
          <mxGeometry x="40" y="440" width="20" height="20" as="geometry" />
        </mxCell>
        <mxCell id="Ia3Usn_LcrKeNn7vQDtO-16" value="" style="endArrow=none;dashed=1;html=1;shadow=0;sketch=0;strokeColor=#666666;strokeWidth=2;startSize=7;endSize=7;curved=1;" parent="1" edge="1">
          <mxGeometry width="50" height="50" relative="1" as="geometry">
            <mxPoint x="240" y="425" as="sourcePoint" />
            <mxPoint x="240" y="360" as="targetPoint" />
          </mxGeometry>
        </mxCell>
        <mxCell id="Ia3Usn_LcrKeNn7vQDtO-17" value="$$L(t_1)$$" style="text;html=1;strokeColor=none;fillColor=none;align=center;verticalAlign=middle;whiteSpace=wrap;rounded=0;" parent="1" vertex="1">
          <mxGeometry x="260" y="390" width="20" height="20" as="geometry" />
        </mxCell>
        <mxCell id="Ia3Usn_LcrKeNn7vQDtO-19" value="$$t_1$$" style="text;html=1;strokeColor=none;fillColor=none;align=center;verticalAlign=middle;whiteSpace=wrap;rounded=0;" parent="1" vertex="1">
          <mxGeometry x="230" y="440" width="20" height="20" as="geometry" />
        </mxCell>
        <mxCell id="Ia3Usn_LcrKeNn7vQDtO-22" value="" style="endArrow=none;dashed=1;html=1;shadow=0;sketch=0;strokeColor=#666666;strokeWidth=2;startSize=7;endSize=7;curved=1;" parent="1" edge="1">
          <mxGeometry width="50" height="50" relative="1" as="geometry">
            <mxPoint x="240" y="430" as="sourcePoint" />
            <mxPoint x="250" y="400" as="targetPoint" />
          </mxGeometry>
        </mxCell>
        <mxCell id="Ia3Usn_LcrKeNn7vQDtO-23" value="$$\theta_1$$" style="text;html=1;strokeColor=none;fillColor=none;align=center;verticalAlign=middle;whiteSpace=wrap;rounded=0;" parent="1" vertex="1">
          <mxGeometry x="250" y="360" width="20" height="20" as="geometry" />
        </mxCell>
        <mxCell id="Ia3Usn_LcrKeNn7vQDtO-24" value="" style="endArrow=classic;html=1;shadow=0;sketch=0;strokeColor=#000000;strokeWidth=2;startSize=3;endSize=3;curved=1;" parent="1" edge="1">
          <mxGeometry width="50" height="50" relative="1" as="geometry">
            <mxPoint x="255" y="380" as="sourcePoint" />
            <mxPoint x="245" y="400" as="targetPoint" />
          </mxGeometry>
        </mxCell>
        <mxCell id="Ia3Usn_LcrKeNn7vQDtO-25" value="$$L&#39;(t_1)$$" style="text;html=1;strokeColor=none;fillColor=none;align=center;verticalAlign=middle;whiteSpace=wrap;rounded=0;" parent="1" vertex="1">
          <mxGeometry x="210" y="390" width="20" height="20" as="geometry" />
        </mxCell>
        <mxCell id="Ia3Usn_LcrKeNn7vQDtO-26" value="" style="endArrow=none;dashed=1;html=1;shadow=0;sketch=0;strokeColor=#666666;strokeWidth=2;startSize=7;endSize=7;curved=1;" parent="1" edge="1">
          <mxGeometry width="50" height="50" relative="1" as="geometry">
            <mxPoint x="430" y="380" as="sourcePoint" />
            <mxPoint x="430" y="350" as="targetPoint" />
          </mxGeometry>
        </mxCell>
        <mxCell id="Ia3Usn_LcrKeNn7vQDtO-27" value="" style="endArrow=none;dashed=1;html=1;shadow=0;sketch=0;strokeColor=#666666;strokeWidth=2;startSize=7;endSize=7;curved=1;" parent="1" edge="1">
          <mxGeometry width="50" height="50" relative="1" as="geometry">
            <mxPoint x="430" y="380" as="sourcePoint" />
            <mxPoint x="440" y="360" as="targetPoint" />
          </mxGeometry>
        </mxCell>
        <mxCell id="Ia3Usn_LcrKeNn7vQDtO-28" value="$$t_2$$" style="text;html=1;strokeColor=none;fillColor=none;align=center;verticalAlign=middle;whiteSpace=wrap;rounded=0;" parent="1" vertex="1">
          <mxGeometry x="420" y="440" width="20" height="20" as="geometry" />
        </mxCell>
        <mxCell id="Ia3Usn_LcrKeNn7vQDtO-29" value="$$L&#39;(t_2)$$" style="text;html=1;strokeColor=none;fillColor=none;align=center;verticalAlign=middle;whiteSpace=wrap;rounded=0;" parent="1" vertex="1">
          <mxGeometry x="404" y="350" width="16" height="20" as="geometry" />
        </mxCell>
        <mxCell id="Ia3Usn_LcrKeNn7vQDtO-30" value="$$L(t_2)$$" style="text;html=1;strokeColor=none;fillColor=none;align=center;verticalAlign=middle;whiteSpace=wrap;rounded=0;" parent="1" vertex="1">
          <mxGeometry x="450" y="360" width="20" height="20" as="geometry" />
        </mxCell>
        <mxCell id="Ia3Usn_LcrKeNn7vQDtO-33" value="$$\theta_2$$" style="text;html=1;strokeColor=none;fillColor=none;align=center;verticalAlign=middle;whiteSpace=wrap;rounded=0;" parent="1" vertex="1">
          <mxGeometry x="445" y="310" width="20" height="20" as="geometry" />
        </mxCell>
        <mxCell id="Ia3Usn_LcrKeNn7vQDtO-34" value="" style="endArrow=classic;html=1;shadow=0;sketch=0;strokeColor=#000000;strokeWidth=2;startSize=3;endSize=3;curved=1;" parent="1" edge="1">
          <mxGeometry width="50" height="50" relative="1" as="geometry">
            <mxPoint x="450" y="330" as="sourcePoint" />
            <mxPoint x="440" y="350" as="targetPoint" />
          </mxGeometry>
        </mxCell>
        <mxCell id="Ia3Usn_LcrKeNn7vQDtO-35" value="" style="endArrow=none;dashed=1;html=1;shadow=0;sketch=0;strokeColor=#666666;strokeWidth=2;startSize=7;endSize=7;curved=1;" parent="1" edge="1">
          <mxGeometry width="50" height="50" relative="1" as="geometry">
            <mxPoint x="660" y="402.5" as="sourcePoint" />
            <mxPoint x="660" y="350" as="targetPoint" />
          </mxGeometry>
        </mxCell>
        <mxCell id="Ia3Usn_LcrKeNn7vQDtO-36" value="$$L&#39;(t_3)$$" style="text;html=1;strokeColor=none;fillColor=none;align=center;verticalAlign=middle;whiteSpace=wrap;rounded=0;" parent="1" vertex="1">
          <mxGeometry x="630" y="360" width="20" height="20" as="geometry" />
        </mxCell>
        <mxCell id="OIaDtMkc6FVPPaxR1Qrg-1" value="$$t_3$$" style="text;html=1;strokeColor=none;fillColor=none;align=center;verticalAlign=middle;whiteSpace=wrap;rounded=0;" parent="1" vertex="1">
          <mxGeometry x="650" y="440" width="20" height="20" as="geometry" />
        </mxCell>
      </root>
    </mxGraphModel>
  </diagram>
</mxfile>
